HIERARCHY
ROOT Pelvis
{
	OFFSET 0.000000 0.000000 0.000000
	CHANNELS 6 Xposition Yposition Zposition Xrotation Yrotation Zrotation
	JOINT LeftUpLeg_virtual
	{
		OFFSET 0.000000 0.000000 0.000000
		CHANNELS 3 Xrotation Yrotation Zrotation
		JOINT LeftUpLeg
		{
			OFFSET 18.735201 -5.666702 -4.541200
			CHANNELS 3 Xrotation Yrotation Zrotation
			JOINT LeftLeg
			{
				OFFSET -0.021200 -31.938179 0.493100
				CHANNELS 3 Xrotation Yrotation Zrotation
				JOINT LeftFoot
				{
					OFFSET 0.021200 -31.938179 -4.336299
					CHANNELS 3 Xrotation Yrotation Zrotation
					JOINT LeftToeBase
					{
						OFFSET 0.943001 -26.722000 15.023500
						CHANNELS 3 Xrotation Yrotation Zrotation
						End Site
						{
							OFFSET 0 0 0
						}
					}
				}
			}
		}
	}
	JOINT RightUpLeg_virtual
	{
		OFFSET 0.000000 0.000000 0.000000
		CHANNELS 3 Xrotation Yrotation Zrotation
		JOINT RightUpLeg
		{
			OFFSET -18.735201 -5.666702 -4.541200
			CHANNELS 3 Xrotation Yrotation Zrotation
			JOINT RightLeg
			{
				OFFSET 0.018946 -31.938133 0.493100
				CHANNELS 3 Xrotation Yrotation Zrotation
				JOINT RightFoot
				{
					OFFSET -0.018946 -31.938126 -4.336299
					CHANNELS 3 Xrotation Yrotation Zrotation
					JOINT RightToeBase
					{
						OFFSET -0.943001 -26.722004 15.023500
						CHANNELS 3 Xrotation Yrotation Zrotation
						End Site
						{
							OFFSET 0 0 0
						}
					}
				}
			}
		}
	}
	JOINT Hips_virtual
	{
		OFFSET 0.000000 0.000000 0.000000
		CHANNELS 3 Xrotation Yrotation Zrotation
		JOINT Hips
		{
			OFFSET -0.000000 -0.000000 -0.000000
			CHANNELS 3 Xrotation Yrotation Zrotation
			JOINT Spine
			{
				OFFSET 0.000000 10.199997 -0.299500
				CHANNELS 3 Xrotation Yrotation Zrotation
				JOINT Spine1
				{
					OFFSET 0.000000 11.900002 -1.516600
					CHANNELS 3 Xrotation Yrotation Zrotation
					JOINT Spine2
					{
						OFFSET 0.000000 13.600006 -2.842500
						CHANNELS 3 Xrotation Yrotation Zrotation
						JOINT Neck_virtual
						{
							OFFSET 0.000000 0.000000 0.000000
							CHANNELS 3 Xrotation Yrotation Zrotation
							JOINT Neck
							{
								OFFSET 0.000000 9.624100 -2.890100
								CHANNELS 3 Xrotation Yrotation Zrotation
								JOINT Head
								{
									OFFSET 0.000000 14.068802 -1.351900
									CHANNELS 3 Xrotation Yrotation Zrotation
									End Site
									{
										OFFSET 0 0 0
									}
								}
							}
						}
						JOINT LeftShoulder_virtual
						{
							OFFSET 0.000000 0.000000 0.000000
							CHANNELS 3 Xrotation Yrotation Zrotation
							JOINT LeftShoulder
							{
								OFFSET 15.263000 10.923401 -0.547700
								CHANNELS 3 Xrotation Yrotation Zrotation
								JOINT LeftArm
								{
									OFFSET 25.438599 -2.830597 -13.032500
									CHANNELS 3 Xrotation Yrotation Zrotation
									JOINT LeftForeArm
									{
										OFFSET 29.960503 0.000000 0.000000
										CHANNELS 3 Xrotation Yrotation Zrotation
										JOINT LeftHand
										{
											OFFSET 27.849251 0.000000 0.000000
											CHANNELS 3 Xrotation Yrotation Zrotation
											End Site
											{
												OFFSET 0 0 0
											}
										}
									}
								}
							}
						}
						JOINT RightShoulder_virtual
						{
							OFFSET 0.000000 0.000000 0.000000
							CHANNELS 3 Xrotation Yrotation Zrotation
							JOINT RightShoulder
							{
								OFFSET -15.263000 10.923401 -0.547700
								CHANNELS 3 Xrotation Yrotation Zrotation
								JOINT RightArm
								{
									OFFSET -25.438599 -2.830597 -13.032500
									CHANNELS 3 Xrotation Yrotation Zrotation
									JOINT RightForeArm
									{
										OFFSET -29.960503 0.000000 0.000000
										CHANNELS 3 Xrotation Yrotation Zrotation
										JOINT RightHand
										{
											OFFSET -27.849251 0.000000 0.000000
											CHANNELS 3 Xrotation Yrotation Zrotation
											End Site
											{
												OFFSET 0 0 0
											}
										}
									}
								}
							}
						}
					}
				}
			}
		}
	}
}
MOTION
Frames: 4
Frame Time: 0.03333333
-8.612656 91.881546 8.547655 0.000000 0.000000 0.000000 -3.160548 1.859201 -0.590452 -18.296945 0.328397 10.660914 33.559458 -1.415268 -3.885176 -9.294395 1.990789 6.963615 0.000000 0.000000 0.000000 -3.899357 2.709104 -0.453586 -26.911137 2.334504 5.440890 27.883482 0.149460 2.762644 13.519086 -1.201590 2.386907 0.000000 0.000000 0.000000 -3.645971 2.579270 -0.372338 -0.767984 -0.155573 -0.200369 5.611721 -3.997813 0.124760 3.995367 1.808572 -0.710706 0.000000 0.000000 0.000000 1.059747 2.395783 -0.154798 3.038104 -4.447510 -1.507835 0.000000 0.000000 0.000000 -0.303683 1.496847 0.386266 0.846321 3.844354 -14.695664 -16.933139 -32.774905 -63.584915 -4.270783 2.279282 -7.447500 0.000000 0.000000 0.000000 1.860321 3.723775 -0.407598 -12.196218 10.926774 12.142754 2.057835 16.629205 64.485653 9.177178 23.406560 -0.361572 0.000000 0.000000 0.000000 
-8.597187 91.866478 8.483267 0.000000 0.000000 0.000000 -3.150250 1.643653 -0.550799 -18.059691 0.750502 10.760641 33.142950 -1.525947 -3.907648 -9.383065 1.918259 6.635230 0.000000 0.000000 0.000000 -3.881434 2.529389 -0.380543 -27.241684 2.276840 5.324805 28.345055 0.238392 2.773374 13.563344 -0.984978 2.341712 0.000000 0.000000 0.000000 -3.641925 2.331567 -0.301733 -0.770490 -0.160299 -0.195501 5.748906 -4.025459 0.081057 4.015564 1.799099 -0.680672 0.000000 0.000000 0.000000 1.063519 2.393766 -0.133770 3.052854 -4.437386 -1.488889 0.000000 0.000000 0.000000 -0.290733 1.495433 0.413692 0.828587 3.880626 -14.744119 -17.183395 -32.847930 -63.659296 -4.184862 2.464049 -7.440120 0.000000 0.000000 0.000000 1.895046 3.713710 -0.420652 -12.172728 10.834019 12.218498 2.203140 16.904500 64.267415 9.117702 23.628310 -0.166392 0.000000 0.000000 0.000000 
-8.533052 91.849815 8.521444 0.000000 0.000000 0.000000 -3.114753 1.146109 -0.541932 -17.734076 1.273631 10.871775 32.689907 -1.574619 -3.820016 -9.464848 1.887210 6.398301 0.000000 0.000000 0.000000 -3.850267 2.123316 -0.354445 -27.809716 2.283561 5.212912 29.149079 0.475878 2.800699 13.482280 -0.575127 2.287714 0.000000 0.000000 0.000000 -3.632914 1.886278 -0.242503 -0.781441 -0.168251 -0.177754 5.992022 -4.055056 0.110295 3.992868 1.770737 -0.577385 0.000000 0.000000 0.000000 1.063520 2.366943 -0.052425 3.064382 -4.397089 -1.464130 0.000000 0.000000 0.000000 -0.264488 1.479869 0.494448 0.809976 3.805226 -14.846249 -17.310797 -32.791694 -63.598480 -4.042216 2.663050 -7.539488 0.000000 0.000000 0.000000 1.909567 3.683804 -0.366663 -11.996071 10.728040 12.227852 2.499056 17.453910 63.838869 9.070156 23.832347 0.127050 0.000000 0.000000 0.000000 
-8.437460 91.822784 8.651279 0.000000 0.000000 0.000000 -3.078092 0.431823 -0.588351 -17.422896 1.867426 11.033611 32.413981 -1.592119 -3.651037 -9.591983 1.841139 6.187454 0.000000 0.000000 0.000000 -3.824129 1.524277 -0.402984 -28.390754 2.310264 5.181423 30.024832 0.855704 2.825430 13.355435 0.000251 2.282170 0.000000 0.000000 0.000000 -3.635559 1.294742 -0.225552 -0.796613 -0.174060 -0.157127 6.320572 -4.091720 0.205514 3.918286 1.723057 -0.418935 0.000000 0.000000 0.000000 1.036266 2.324742 0.066534 3.073155 -4.327493 -1.437237 0.000000 0.000000 0.000000 -0.234489 1.450294 0.622119 0.792968 3.601478 -14.997040 -17.265912 -32.569661 -63.422821 -3.856233 2.800283 -7.750925 0.000000 0.000000 0.000000 1.917729 3.637894 -0.256732 -11.678489 10.597009 12.123927 2.924989 18.149389 63.200540 9.029817 23.991132 0.525595 0.000000 0.000000 0.000000 
